# xmcd CD database file
#
# Track frame offsets:
#	150
#	36913
#	70180
#	93110
#	120161
#	146111
#	173387
#	200201
#	220223
#
# Disc length: 3295 seconds
#
# Revision: 0
# Processed by: cddbd v1.5.2PL0 Copyright (c) Steve Scherf et al.
# Submitted via: CDex 1.70beta3
#
DISCID=7b0cdd09
DTITLE=俵山昌之 - TOWER STATION
DYEAR=2013
DGENRE=Jazz
TTITLE0=Morning In Rio
TTITLE1=Tower Station
TTITLE2=風の詩
TTITLE3=So Many Stars
TTITLE4=Night Flight
TTITLE5=素晴らしき夢
TTITLE6=Oriental Walk
TTITLE7=Berimbau
TTITLE8=The Peace Song
EXTD=YEAR: 2013
EXTT0=
EXTT1=
EXTT2=
EXTT3=
EXTT4=
EXTT5=
EXTT6=
EXTT7=
EXTT8=
PLAYORDER=
